<svg xmlns="http://www.w3.org/2000/svg" width="400" height="400" viewBox="0 0 400 400">
  <defs>
    <linearGradient id="blueGrad" x1="0%" y1="0%" x2="100%" y2="100%">
      <stop offset="0%" stop-color="#3b82f6" />
      <stop offset="100%" stop-color="#1d4ed8" />
    </linearGradient>
    <radialGradient id="glow" cx="50%" cy="50%" r="50%" fx="50%" fy="50%">
      <stop offset="0%" stop-color="#3b82f6" stop-opacity="0.2"/>
      <stop offset="100%" stop-color="#06070a" stop-opacity="0"/>
    </radialGradient>
  </defs>
  
  <!-- Background -->
  <rect width="400" height="400" fill="#0f111a" />
  <circle cx="200" cy="200" r="180" fill="url(#glow)"/>
  
  <!-- Grid layout details -->
  <rect x="110" y="110" width="80" height="80" rx="8" fill="url(#blueGrad)" opacity="0.8"/>
  <rect x="210" y="110" width="80" height="80" rx="8" fill="#1e293b" />
  <rect x="110" y="210" width="80" height="80" rx="8" fill="#1e293b" />
  <rect x="210" y="210" width="80" height="80" rx="8" fill="url(#blueGrad)" opacity="0.6"/>
  
  <!-- Folder icon shape in center -->
  <path d="M185,170 L215,170 C223,170 225,175 227,178 L232,185 L260,185 C268,185 272,189 272,197 L272,248 C272,256 268,260 260,260 L140,260 C132,260 128,256 128,248 L128,182 C128,174 132,170 140,170 L170,170 L178,178 Z" fill="#ffffff" opacity="0.85" />
  <path d="M210,210 L190,210 L190,230 L180,230 L180,210 L160,210 L160,200 L180,200 L180,180 L190,180 L190,200 L210,200 Z" fill="#3b82f6" opacity="0.9"/>
  
  <!-- Border outline -->
  <rect x="20" y="20" width="360" height="360" rx="16" fill="none" stroke="rgba(255,255,255,0.03)" stroke-width="2"/>
</svg>
